<svg width="360" height="236" viewBox="0 0 360 236" fill="none" xmlns="http://www.w3.org/2000/svg">
<g clip-path="url(#clip0_1787_12266)">
<mask id="mask0_1787_12266" style="mask-type:luminance" maskUnits="userSpaceOnUse" x="0" y="2" width="360" height="234">
<path d="M359.96 2.90771H0.00390625V235.844H359.96V2.90771Z" fill="white"/>
</mask>
<g mask="url(#mask0_1787_12266)">
<path d="M16.2232 234.91C7.27461 234.91 0.00390625 226.744 0.00390625 216.789C0.00390625 206.722 7.27461 198.668 16.2232 198.668H30.3172V204.485H16.2232C10.1829 204.485 5.82068 209.966 5.82068 216.789C5.82068 223.501 10.1829 228.982 16.2232 228.982H30.3172V234.91H16.2232Z" fill="#936CFF"/>
<path d="M37.1389 234.91C36.6914 234.91 36.3223 234.831 36.0203 234.686C35.6512 234.462 35.3157 234.238 35.0137 234.015C34.79 233.713 34.5998 233.377 34.4544 233.008C34.309 232.639 34.2305 232.225 34.2305 231.777V198.444H40.3826V228.757H59.9576V234.91H37.1389Z" fill="#936CFF"/>
<path fill-rule="evenodd" clip-rule="evenodd" d="M76.2888 235.357C74.2754 235.357 72.3737 234.988 70.584 234.239C68.7943 233.489 67.2617 232.449 65.9978 231.107C64.7338 229.764 63.7274 228.165 62.9779 226.297C62.2285 224.429 61.8594 222.382 61.8594 220.145V213.098C61.8594 210.86 62.2285 208.814 62.9779 206.946C63.7274 205.077 64.7338 203.478 65.9978 202.136C67.2617 200.793 68.7943 199.753 70.584 199.004C72.3737 198.254 74.2754 197.885 76.2888 197.885H85.0134C87.0269 197.885 88.9285 198.254 90.7182 199.004C92.4297 199.753 93.9622 200.793 95.3045 202.136C96.5685 203.478 97.5417 205.077 98.2129 206.946C98.9623 208.814 99.3314 210.86 99.3314 213.098V220.145C99.3314 222.382 98.9623 224.429 98.2129 226.297C97.5417 228.165 96.5685 229.764 95.3045 231.107C93.9622 232.449 92.4297 233.489 90.7182 234.239C88.9285 234.988 87.0269 235.357 85.0134 235.357H76.2888ZM76.2888 203.925C74.9465 203.925 73.7494 204.149 72.7092 204.597C71.6689 205.044 70.7293 205.682 69.9127 206.498C69.1633 207.315 68.604 208.288 68.2349 209.406C67.7875 210.525 67.5636 211.755 67.5636 213.098V220.145C67.5636 221.565 67.7875 222.829 68.2349 223.948C68.604 225.066 69.1633 225.995 69.9127 226.744C70.7293 227.561 71.6689 228.198 72.7092 228.646C73.7494 229.093 74.9465 229.317 76.2888 229.317H84.9015C86.1654 229.317 87.3289 229.093 88.3691 228.646C89.4877 228.198 90.4161 227.561 91.1656 226.744C91.915 225.995 92.508 225.066 92.9554 223.948C93.3245 222.829 93.5147 221.565 93.5147 220.145V213.098C93.5147 211.755 93.3245 210.525 92.9554 209.406C92.508 208.288 91.915 207.315 91.1656 206.498C90.4161 205.682 89.4877 205.044 88.3691 204.597C87.3289 204.149 86.1654 203.925 84.9015 203.925H76.2888Z" fill="#936CFF"/>
<path d="M119.916 234.91C118.574 234.91 117.198 234.719 115.777 234.35C114.435 234.048 113.126 233.601 111.862 233.008C110.598 232.337 109.402 231.52 108.283 230.547C107.164 229.574 106.157 228.422 105.263 227.08C104.446 225.737 103.808 224.205 103.361 222.494C102.835 220.704 102.578 218.769 102.578 216.677V198.444H108.283V216.677C108.283 218.612 108.54 220.256 109.066 221.599C109.591 222.941 110.263 224.06 111.079 224.954C111.829 225.849 112.679 226.554 113.652 227.08C114.625 227.605 115.52 227.974 116.336 228.198C117.231 228.5 117.981 228.679 118.573 228.757H129.424V198.444H135.129V231.777C135.129 232.225 135.05 232.639 134.905 233.008C134.759 233.377 134.569 233.713 134.345 234.015C134.043 234.238 133.753 234.462 133.451 234.686C133.082 234.831 132.701 234.91 132.332 234.91H119.916Z" fill="#936CFF"/>
<path fill-rule="evenodd" clip-rule="evenodd" d="M142.061 234.91C141.613 234.91 141.244 234.831 140.942 234.686C140.573 234.462 140.238 234.238 139.936 234.015C139.712 233.713 139.522 233.377 139.376 233.008C139.231 232.639 139.152 232.225 139.152 231.777V201.464C139.152 201.017 139.231 200.603 139.376 200.234C139.522 199.865 139.712 199.563 139.936 199.339C140.238 199.037 140.573 198.813 140.942 198.668C141.244 198.523 141.613 198.444 142.061 198.444H159.287C161.378 198.444 163.28 198.813 164.991 199.563C166.781 200.312 168.314 201.352 169.578 202.695C170.842 204.037 171.849 205.637 172.598 207.505C173.347 209.373 173.717 211.42 173.717 213.657V219.697C173.717 221.856 173.347 223.869 172.598 225.737C171.849 227.605 170.842 229.205 169.578 230.547C168.314 231.889 166.781 232.93 164.991 233.679C163.28 234.496 161.378 234.91 159.287 234.91H142.061ZM144.857 228.757H159.287C160.629 228.757 161.826 228.567 162.866 228.198C163.906 227.751 164.846 227.113 165.663 226.297C166.412 225.48 167.005 224.507 167.452 223.388C167.822 222.27 168.012 221.039 168.012 219.697V213.657C168.012 212.236 167.822 210.972 167.452 209.854C167.005 208.735 166.412 207.762 165.663 206.945C164.846 206.196 163.906 205.603 162.866 205.156C161.826 204.708 160.629 204.484 159.287 204.484H144.857V228.757Z" fill="#936CFF"/>
<path d="M193.181 234.91C183.673 234.91 176.402 226.632 176.402 216.677C176.402 206.61 183.673 198.444 193.181 198.444H210.519V204.373H193.181C186.805 204.373 182.443 209.854 182.443 216.677C182.443 223.388 186.805 228.869 193.181 228.869H204.926V221.151H193.516V215.223H210.519V234.91H193.181Z" fill="#936CFF"/>
<path d="M241.617 234.91L228.306 222.717H223.943V216.677H238.037C238.854 216.598 239.637 216.42 240.386 216.118C241.057 215.815 241.65 215.413 242.176 214.887C242.702 214.362 243.104 213.735 243.406 212.986C243.63 212.315 243.742 211.498 243.742 210.525V206.274C243.742 205.905 243.709 205.569 243.63 205.267C243.485 205.044 243.328 204.854 243.182 204.708C242.959 204.563 242.735 204.484 242.512 204.484H220.7V234.91H214.883V201.464C214.883 201.017 214.961 200.603 215.107 200.234C215.252 199.865 215.475 199.563 215.777 199.339C216.001 199.037 216.304 198.813 216.673 198.668C217.042 198.523 217.422 198.444 217.791 198.444H242.064C243.484 198.444 244.637 198.702 245.532 199.227C246.505 199.753 247.288 200.379 247.881 201.129C248.473 201.945 248.887 202.807 249.111 203.702C249.413 204.596 249.558 205.458 249.558 206.274V210.525C249.558 212.012 249.368 213.355 248.999 214.552C248.63 215.748 248.138 216.789 247.545 217.684C246.952 218.579 246.281 219.328 245.532 219.921C244.715 220.592 243.888 221.151 243.071 221.599C242.176 221.968 241.314 222.27 240.498 222.494C239.603 222.639 238.787 222.717 238.037 222.717H237.142L250.453 234.91H241.617Z" fill="#936CFF"/>
<path d="M264.544 234.91L263.985 234.798L266.781 229.317H279.309L276.177 204.932H275.618L257.609 234.91H250.227L271.927 198.333H281.546L286.803 234.91H264.544Z" fill="#936CFF"/>
<path d="M290.496 234.91V207.505C290.496 205.86 290.798 204.451 291.391 203.254C291.916 202.135 292.621 201.207 293.516 200.458C294.332 199.708 295.272 199.194 296.312 198.892C297.285 198.59 298.214 198.444 299.109 198.444H312.084C313.505 198.444 314.769 198.634 315.887 199.004C317.006 199.373 317.979 199.865 318.796 200.458C319.691 201.129 320.44 201.878 321.033 202.695C321.626 203.511 322.118 204.373 322.487 205.267C322.856 206.162 323.158 207.057 323.382 207.952C323.527 208.847 323.606 209.708 323.606 210.525V213.657C323.606 215.144 323.416 216.453 323.047 217.572C322.745 218.769 322.297 219.809 321.704 220.704C321.111 221.599 320.395 222.382 319.579 223.053C318.829 223.646 318.013 224.171 317.118 224.619C316.301 224.988 315.44 225.29 314.545 225.514C313.65 225.659 312.834 225.737 312.084 225.737H299.445V219.697H312.084C312.979 219.619 313.762 219.44 314.433 219.138C315.183 218.836 315.809 218.433 316.335 217.907C316.783 217.382 317.152 216.755 317.454 216.006C317.756 215.335 317.901 214.552 317.901 213.657V210.525C317.823 209.63 317.644 208.813 317.342 208.064C317.04 207.314 316.671 206.688 316.223 206.162C315.697 205.637 315.105 205.234 314.433 204.932C313.762 204.63 312.979 204.484 312.084 204.484H299.109C298.214 204.484 297.509 204.742 296.984 205.267C296.458 205.793 296.201 206.531 296.201 207.505V234.91H290.496Z" fill="#936CFF"/>
<path d="M354.256 234.91V219.697H332.779V234.91H327.074V198.444H332.779V213.545H354.256V198.444H359.961V234.91H354.256Z" fill="#936CFF"/>
<path d="M233.56 33.3435L250.227 91.2854L209.622 137.706H150.227L109.734 91.2854L126.401 33.3435L179.98 7.50439L233.56 33.3435Z" stroke="url(#paint0_linear_1787_12266)" stroke-width="8" stroke-miterlimit="2"/>
<path d="M122.039 76.6318H237.923L179.981 166.006L122.039 76.6318Z" stroke="url(#paint1_linear_1787_12266)" stroke-width="8" stroke-miterlimit="3"/>
<path d="M126.402 33.3438L180.094 137.706" stroke="url(#paint2_linear_1787_12266)" stroke-width="8" stroke-miterlimit="2"/>
<path d="M180.094 137.706L233.673 33.3438" stroke="url(#paint3_linear_1787_12266)" stroke-width="8" stroke-miterlimit="2"/>
<path d="M180.094 40.5022V7.50439" stroke="url(#paint4_linear_1787_12266)" stroke-width="8" stroke-miterlimit="2"/>
<path d="M211.414 76.6323L180.094 40.5024" stroke="url(#paint5_linear_1787_12266)" stroke-width="8" stroke-miterlimit="2"/>
<path d="M180.092 40.5024L148.66 76.6323" stroke="url(#paint6_linear_1787_12266)" stroke-width="8" stroke-miterlimit="2"/>
</g>
</g>
<defs>
<linearGradient id="paint0_linear_1787_12266" x1="224.444" y1="124.059" x2="121.897" y2="25.5239" gradientUnits="userSpaceOnUse">
<stop stop-color="#FFAFBE"/>
<stop offset="0.07" stop-color="#EFA5C7"/>
<stop offset="0.24" stop-color="#CE91DB"/>
<stop offset="0.42" stop-color="#B481EB"/>
<stop offset="0.6" stop-color="#A275F6"/>
<stop offset="0.79" stop-color="#976EFD"/>
<stop offset="1" stop-color="#936CFF"/>
</linearGradient>
<linearGradient id="paint1_linear_1787_12266" x1="224.444" y1="124.059" x2="121.898" y2="25.5237" gradientUnits="userSpaceOnUse">
<stop stop-color="#FFAFBE"/>
<stop offset="0.07" stop-color="#EFA5C7"/>
<stop offset="0.24" stop-color="#CE91DB"/>
<stop offset="0.42" stop-color="#B481EB"/>
<stop offset="0.6" stop-color="#A275F6"/>
<stop offset="0.79" stop-color="#976EFD"/>
<stop offset="1" stop-color="#936CFF"/>
</linearGradient>
<linearGradient id="paint2_linear_1787_12266" x1="224.445" y1="124.06" x2="121.898" y2="25.5243" gradientUnits="userSpaceOnUse">
<stop stop-color="#FFAFBE"/>
<stop offset="0.07" stop-color="#EFA5C7"/>
<stop offset="0.24" stop-color="#CE91DB"/>
<stop offset="0.42" stop-color="#B481EB"/>
<stop offset="0.6" stop-color="#A275F6"/>
<stop offset="0.79" stop-color="#976EFD"/>
<stop offset="1" stop-color="#936CFF"/>
</linearGradient>
<linearGradient id="paint3_linear_1787_12266" x1="224.445" y1="124.06" x2="121.898" y2="25.5245" gradientUnits="userSpaceOnUse">
<stop stop-color="#FFAFBE"/>
<stop offset="0.07" stop-color="#EFA5C7"/>
<stop offset="0.24" stop-color="#CE91DB"/>
<stop offset="0.42" stop-color="#B481EB"/>
<stop offset="0.6" stop-color="#A275F6"/>
<stop offset="0.79" stop-color="#976EFD"/>
<stop offset="1" stop-color="#936CFF"/>
</linearGradient>
<linearGradient id="paint4_linear_1787_12266" x1="nan" y1="nan" x2="nan" y2="nan" gradientUnits="userSpaceOnUse">
<stop stop-color="#FFAFBE"/>
<stop offset="0.07" stop-color="#EFA5C7"/>
<stop offset="0.24" stop-color="#CE91DB"/>
<stop offset="0.42" stop-color="#B481EB"/>
<stop offset="0.6" stop-color="#A275F6"/>
<stop offset="0.79" stop-color="#976EFD"/>
<stop offset="1" stop-color="#936CFF"/>
</linearGradient>
<linearGradient id="paint5_linear_1787_12266" x1="224.445" y1="124.06" x2="121.898" y2="25.5243" gradientUnits="userSpaceOnUse">
<stop stop-color="#FFAFBE"/>
<stop offset="0.07" stop-color="#EFA5C7"/>
<stop offset="0.24" stop-color="#CE91DB"/>
<stop offset="0.42" stop-color="#B481EB"/>
<stop offset="0.6" stop-color="#A275F6"/>
<stop offset="0.79" stop-color="#976EFD"/>
<stop offset="1" stop-color="#936CFF"/>
</linearGradient>
<linearGradient id="paint6_linear_1787_12266" x1="224.443" y1="124.06" x2="121.897" y2="25.5239" gradientUnits="userSpaceOnUse">
<stop stop-color="#FFAFBE"/>
<stop offset="0.07" stop-color="#EFA5C7"/>
<stop offset="0.24" stop-color="#CE91DB"/>
<stop offset="0.42" stop-color="#B481EB"/>
<stop offset="0.6" stop-color="#A275F6"/>
<stop offset="0.79" stop-color="#976EFD"/>
<stop offset="1" stop-color="#936CFF"/>
</linearGradient>
<clipPath id="clip0_1787_12266">
<rect width="360" height="235.436" fill="white"/>
</clipPath>
</defs>
</svg>
